<svg xmlns="http://www.w3.org/2000/svg" viewBox="0 0 1200 675" width="1200" height="675"><rect width="1200" height="675" fill="#ffffff"/><text x="60" y="80" font-family="Inter,Arial,sans-serif" font-size="44" font-weight="800" fill="#1e293b">Even LLMs are mostly opaque</text><text x="60" y="125" font-family="Inter,Arial,sans-serif" font-size="26" fill="#94a3b8">Verified status-feed coverage among the 62 LLM services monitored by DownForAI</text><text x="60" y="330" font-family="Inter,Arial,sans-serif" font-size="180" font-weight="900" fill="#4F46E5">27%</text><text x="60" y="395" font-family="Inter,Arial,sans-serif" font-size="30" font-weight="700" fill="#1e293b">of LLM providers expose a verified status feed (17 of 62).</text><text x="60" y="440" font-family="Inter,Arial,sans-serif" font-size="30" font-weight="700" fill="#ef4444">73% leave you guessing when they slow down or fail.</text><circle cx="73" cy="503" r="13" fill="#4F46E5"/><circle cx="111" cy="503" r="13" fill="#4F46E5"/><circle cx="149" cy="503" r="13" fill="#4F46E5"/><circle cx="187" cy="503" r="13" fill="#4F46E5"/><circle cx="225" cy="503" r="13" fill="#4F46E5"/><circle cx="263" cy="503" r="13" fill="#4F46E5"/><circle cx="301" cy="503" r="13" fill="#4F46E5"/><circle cx="339" cy="503" r="13" fill="#4F46E5"/><circle cx="377" cy="503" r="13" fill="#4F46E5"/><circle cx="415" cy="503" r="13" fill="#4F46E5"/><circle cx="453" cy="503" r="13" fill="#4F46E5"/><circle cx="491" cy="503" r="13" fill="#4F46E5"/><circle cx="529" cy="503" r="13" fill="#4F46E5"/><circle cx="567" cy="503" r="13" fill="#4F46E5"/><circle cx="605" cy="503" r="13" fill="#4F46E5"/><circle cx="643" cy="503" r="13" fill="#4F46E5"/><circle cx="681" cy="503" r="13" fill="#4F46E5"/><circle cx="719" cy="503" r="13" fill="#e2e8f0"/><circle cx="757" cy="503" r="13" fill="#e2e8f0"/><circle cx="795" cy="503" r="13" fill="#e2e8f0"/><circle cx="833" cy="503" r="13" fill="#e2e8f0"/><circle cx="871" cy="503" r="13" fill="#e2e8f0"/><circle cx="909" cy="503" r="13" fill="#e2e8f0"/><circle cx="947" cy="503" r="13" fill="#e2e8f0"/><circle cx="985" cy="503" r="13" fill="#e2e8f0"/><circle cx="1023" cy="503" r="13" fill="#e2e8f0"/><circle cx="1061" cy="503" r="13" fill="#e2e8f0"/><circle cx="1099" cy="503" r="13" fill="#e2e8f0"/><circle cx="1137" cy="503" r="13" fill="#e2e8f0"/><circle cx="1175" cy="503" r="13" fill="#e2e8f0"/><circle cx="1213" cy="503" r="13" fill="#e2e8f0"/><circle cx="73" cy="541" r="13" fill="#e2e8f0"/><circle cx="111" cy="541" r="13" fill="#e2e8f0"/><circle cx="149" cy="541" r="13" fill="#e2e8f0"/><circle cx="187" cy="541" r="13" fill="#e2e8f0"/><circle cx="225" cy="541" r="13" fill="#e2e8f0"/><circle cx="263" cy="541" r="13" fill="#e2e8f0"/><circle cx="301" cy="541" r="13" fill="#e2e8f0"/><circle cx="339" cy="541" r="13" fill="#e2e8f0"/><circle cx="377" cy="541" r="13" fill="#e2e8f0"/><circle cx="415" cy="541" r="13" fill="#e2e8f0"/><circle cx="453" cy="541" r="13" fill="#e2e8f0"/><circle cx="491" cy="541" r="13" fill="#e2e8f0"/><circle cx="529" cy="541" r="13" fill="#e2e8f0"/><circle cx="567" cy="541" r="13" fill="#e2e8f0"/><circle cx="605" cy="541" r="13" fill="#e2e8f0"/><circle cx="643" cy="541" r="13" fill="#e2e8f0"/><circle cx="681" cy="541" r="13" fill="#e2e8f0"/><circle cx="719" cy="541" r="13" fill="#e2e8f0"/><circle cx="757" cy="541" r="13" fill="#e2e8f0"/><circle cx="795" cy="541" r="13" fill="#e2e8f0"/><circle cx="833" cy="541" r="13" fill="#e2e8f0"/><circle cx="871" cy="541" r="13" fill="#e2e8f0"/><circle cx="909" cy="541" r="13" fill="#e2e8f0"/><circle cx="947" cy="541" r="13" fill="#e2e8f0"/><circle cx="985" cy="541" r="13" fill="#e2e8f0"/><circle cx="1023" cy="541" r="13" fill="#e2e8f0"/><circle cx="1061" cy="541" r="13" fill="#e2e8f0"/><circle cx="1099" cy="541" r="13" fill="#e2e8f0"/><circle cx="1137" cy="541" r="13" fill="#e2e8f0"/><circle cx="1175" cy="541" r="13" fill="#e2e8f0"/><circle cx="1213" cy="541" r="13" fill="#e2e8f0"/><text x="60" y="635" font-family="Inter,Arial,sans-serif" font-size="22" fill="#94a3b8">Source: DownForAI — State of AI Reliability, Q2 2026  ·  downforai.com  ·  CC BY 4.0</text></svg>